<mxfile host="app.diagrams.net" agent="Mozilla/5.0 (Windows NT 10.0; Win64; x64) AppleWebKit/537.36 (KHTML, like Gecko) Chrome/139.0.0.0 Safari/537.36" version="28.2.1">
  <diagram name="Page-1" id="6sCmCHpmXYp4_OYuZtNJ">
    <mxGraphModel dx="1163" dy="676" grid="1" gridSize="10" guides="1" tooltips="1" connect="1" arrows="1" fold="1" page="1" pageScale="1" pageWidth="827" pageHeight="1169" background="none" math="0" shadow="0">
      <root>
        <mxCell id="0" />
        <mxCell id="1" parent="0" />
        <mxCell id="tZsugNsybOohghbU5goh-2" value="" style="rounded=0;whiteSpace=wrap;html=1;fillColor=none;dashed=1;labelBackgroundColor=none;" parent="1" vertex="1">
          <mxGeometry x="330" y="100" width="497" height="470" as="geometry" />
        </mxCell>
        <mxCell id="tZsugNsybOohghbU5goh-3" value="" style="rounded=0;whiteSpace=wrap;html=1;fillColor=none;labelBackgroundColor=none;strokeColor=#b85450;" parent="1" vertex="1">
          <mxGeometry x="850" y="97" width="130" height="473" as="geometry" />
        </mxCell>
        <mxCell id="tZsugNsybOohghbU5goh-4" value="&lt;h3&gt;source&lt;/h3&gt;&lt;div&gt;&lt;/div&gt;" style="rounded=1;whiteSpace=wrap;html=1;align=center;labelBackgroundColor=none;" parent="1" vertex="1">
          <mxGeometry x="170" y="85.5" width="120" height="20" as="geometry" />
        </mxCell>
        <mxCell id="tZsugNsybOohghbU5goh-5" value="&lt;h3&gt;consume&lt;/h3&gt;" style="rounded=1;whiteSpace=wrap;html=1;labelBackgroundColor=none;" parent="1" vertex="1">
          <mxGeometry x="855" y="74" width="120" height="20" as="geometry" />
        </mxCell>
        <mxCell id="tZsugNsybOohghbU5goh-6" style="edgeStyle=orthogonalEdgeStyle;rounded=0;orthogonalLoop=1;jettySize=auto;html=1;exitX=0.5;exitY=1;exitDx=0;exitDy=0;labelBackgroundColor=none;fontColor=default;" parent="1" source="tZsugNsybOohghbU5goh-3" target="tZsugNsybOohghbU5goh-3" edge="1">
          <mxGeometry relative="1" as="geometry" />
        </mxCell>
        <mxCell id="tZsugNsybOohghbU5goh-7" value="" style="rounded=0;whiteSpace=wrap;html=1;labelBackgroundColor=none;fillColor=none;strokeColor=#d6b656;align=right;" parent="1" vertex="1">
          <mxGeometry x="370" y="125" width="120" height="430" as="geometry" />
        </mxCell>
        <mxCell id="tZsugNsybOohghbU5goh-8" value="" style="rounded=0;whiteSpace=wrap;html=1;fillColor=none;labelBackgroundColor=none;strokeColor=#36393d;" parent="1" vertex="1">
          <mxGeometry x="522" y="125" width="140" height="430" as="geometry" />
        </mxCell>
        <mxCell id="Xj7_EkZbvWYcYtQPjObU-1" value="&lt;h2&gt;Data Warehouse&lt;/h2&gt;" style="rounded=1;whiteSpace=wrap;html=1;labelBackgroundColor=none;" parent="1" vertex="1">
          <mxGeometry x="170" y="25" width="470" height="40" as="geometry" />
        </mxCell>
        <mxCell id="Xj7_EkZbvWYcYtQPjObU-2" value="BRONZE LAYER" style="rounded=1;whiteSpace=wrap;html=1;labelBackgroundColor=none;fillColor=#fff2cc;strokeColor=#d6b656;" parent="1" vertex="1">
          <mxGeometry x="370" y="105" width="120" height="20" as="geometry" />
        </mxCell>
        <mxCell id="Xj7_EkZbvWYcYtQPjObU-3" value="SILVER LAYER" style="rounded=1;whiteSpace=wrap;html=1;labelBackgroundColor=none;fillColor=#f5f5f5;fontColor=#333333;strokeColor=#666666;" parent="1" vertex="1">
          <mxGeometry x="522" y="105" width="140" height="20" as="geometry" />
        </mxCell>
        <mxCell id="Xj7_EkZbvWYcYtQPjObU-4" value="GOLD LAYER" style="rounded=1;whiteSpace=wrap;html=1;labelBackgroundColor=none;fillColor=#ffff88;strokeColor=#36393d;" parent="1" vertex="1">
          <mxGeometry x="690" y="105.5" width="120" height="20" as="geometry" />
        </mxCell>
        <mxCell id="Xj7_EkZbvWYcYtQPjObU-8" value="" style="shape=note;whiteSpace=wrap;html=1;backgroundOutline=1;fontColor=#000000;darkOpacity=0.05;fillColor=#FFF9B2;strokeColor=none;fillStyle=solid;direction=west;gradientDirection=north;gradientColor=#FFF2A1;shadow=1;size=20;pointerEvents=1;" parent="1" vertex="1">
          <mxGeometry x="200" y="255" width="40" height="60" as="geometry" />
        </mxCell>
        <mxCell id="Xj7_EkZbvWYcYtQPjObU-21" value="EMP" style="text;html=1;align=center;verticalAlign=middle;whiteSpace=wrap;rounded=0;" parent="1" vertex="1">
          <mxGeometry x="190" y="325" width="60" height="30" as="geometry" />
        </mxCell>
        <mxCell id="Xj7_EkZbvWYcYtQPjObU-22" value="" style="verticalLabelPosition=bottom;html=1;verticalAlign=top;align=center;strokeColor=none;fillColor=#00BEF2;shape=mxgraph.azure.cloud_services_configuration_file;pointerEvents=1;" parent="1" vertex="1">
          <mxGeometry x="222.5" y="291.5" width="27.5" height="30" as="geometry" />
        </mxCell>
        <mxCell id="Xj7_EkZbvWYcYtQPjObU-25" value="" style="shape=note;whiteSpace=wrap;html=1;backgroundOutline=1;fontColor=#000000;darkOpacity=0.05;fillColor=#FFF9B2;strokeColor=none;fillStyle=solid;direction=west;gradientDirection=north;gradientColor=#FFF2A1;shadow=1;size=20;pointerEvents=1;" parent="1" vertex="1">
          <mxGeometry x="190" y="125.5" width="50" height="60" as="geometry" />
        </mxCell>
        <mxCell id="Xj7_EkZbvWYcYtQPjObU-29" value="" style="verticalLabelPosition=bottom;html=1;verticalAlign=top;align=center;strokeColor=none;fillColor=#00BEF2;shape=mxgraph.azure.cloud_services_configuration_file;pointerEvents=1;" parent="1" vertex="1">
          <mxGeometry x="217.5" y="160" width="25" height="40" as="geometry" />
        </mxCell>
        <mxCell id="Xj7_EkZbvWYcYtQPjObU-31" value="CRM" style="text;html=1;align=center;verticalAlign=middle;whiteSpace=wrap;rounded=0;" parent="1" vertex="1">
          <mxGeometry x="190" y="206" width="60" height="30" as="geometry" />
        </mxCell>
        <mxCell id="Xj7_EkZbvWYcYtQPjObU-36" value="&lt;font style=&quot;font-size: 10px;&quot;&gt;&amp;nbsp; &amp;nbsp; OBJECT TYPE&amp;nbsp;&amp;nbsp;&lt;/font&gt;&lt;div&gt;&lt;span style=&quot;font-size: 10px;&quot;&gt;&lt;br&gt;&lt;/span&gt;&lt;div&gt;&lt;font style=&quot;font-size: 10px;&quot;&gt;&amp;nbsp; &amp;nbsp; &amp;nbsp; CSV FILE&lt;/font&gt;&lt;/div&gt;&lt;div&gt;&lt;font style=&quot;font-size: 10px;&quot;&gt;&amp;nbsp; &amp;nbsp; &amp;nbsp; &amp;nbsp; &amp;nbsp;&lt;/font&gt;&lt;/div&gt;&lt;/div&gt;" style="text;html=1;align=left;verticalAlign=middle;whiteSpace=wrap;rounded=0;" parent="1" vertex="1">
          <mxGeometry x="176.5" y="400" width="107" height="50" as="geometry" />
        </mxCell>
        <mxCell id="Xj7_EkZbvWYcYtQPjObU-37" value="&amp;nbsp; &amp;nbsp; &amp;nbsp;INTERFACE:&lt;div&gt;&lt;br&gt;&lt;div&gt;&amp;nbsp;FILES IN FOLERS&lt;/div&gt;&lt;/div&gt;" style="text;html=1;align=left;verticalAlign=middle;whiteSpace=wrap;rounded=0;fontSize=10;" parent="1" vertex="1">
          <mxGeometry x="176.5" y="445.5" width="120" height="100" as="geometry" />
        </mxCell>
        <mxCell id="Xj7_EkZbvWYcYtQPjObU-44" value="RAW DATA" style="text;html=1;align=center;verticalAlign=middle;whiteSpace=wrap;rounded=0;" parent="1" vertex="1">
          <mxGeometry x="380" y="174" width="80" height="41" as="geometry" />
        </mxCell>
        <mxCell id="Xj7_EkZbvWYcYtQPjObU-46" value="&lt;font style=&quot;font-size: 10px;&quot;&gt;CLEANED SANDARDIZE&lt;/font&gt;D" style="text;html=1;align=center;verticalAlign=middle;whiteSpace=wrap;rounded=0;" parent="1" vertex="1">
          <mxGeometry x="542" y="184.5" width="100" height="30" as="geometry" />
        </mxCell>
        <mxCell id="Xj7_EkZbvWYcYtQPjObU-47" value="&lt;font style=&quot;font-size: 11px;&quot;&gt;BUSINESS&lt;/font&gt;&lt;div&gt;&lt;font style=&quot;font-size: 11px;&quot;&gt;READY DATA&lt;/font&gt;&lt;/div&gt;" style="text;html=1;align=center;verticalAlign=middle;whiteSpace=wrap;rounded=0;" parent="1" vertex="1">
          <mxGeometry x="700" y="179" width="100" height="30" as="geometry" />
        </mxCell>
        <mxCell id="Xj7_EkZbvWYcYtQPjObU-49" value="&amp;nbsp; &amp;nbsp;OBJECT TYPE :&lt;div&gt;&lt;br&gt;&lt;div&gt;&amp;nbsp; &amp;nbsp; &amp;nbsp; &amp;nbsp; &amp;nbsp; Tables&lt;/div&gt;&lt;/div&gt;" style="text;html=1;align=left;verticalAlign=middle;whiteSpace=wrap;rounded=0;" parent="1" vertex="1">
          <mxGeometry x="370" y="230" width="110" height="60" as="geometry" />
        </mxCell>
        <mxCell id="Xj7_EkZbvWYcYtQPjObU-50" value="&amp;nbsp; &amp;nbsp; &amp;nbsp; &amp;nbsp; &amp;nbsp;LOAD:&lt;div&gt;&lt;br&gt;&lt;div&gt;&amp;nbsp; &amp;nbsp; Batch Processing&lt;/div&gt;&lt;div&gt;&amp;nbsp; &amp;nbsp; Full Load&lt;/div&gt;&lt;div&gt;&amp;nbsp; &amp;nbsp;Truncate &amp;amp; Insert&lt;/div&gt;&lt;/div&gt;" style="text;html=1;align=left;verticalAlign=middle;whiteSpace=wrap;rounded=0;" parent="1" vertex="1">
          <mxGeometry x="370" y="310" width="120" height="110" as="geometry" />
        </mxCell>
        <mxCell id="Xj7_EkZbvWYcYtQPjObU-51" style="edgeStyle=orthogonalEdgeStyle;rounded=0;orthogonalLoop=1;jettySize=auto;html=1;exitX=0;exitY=1;exitDx=0;exitDy=0;entryX=0;entryY=0.973;entryDx=0;entryDy=0;entryPerimeter=0;" parent="1" source="tZsugNsybOohghbU5goh-8" target="tZsugNsybOohghbU5goh-8" edge="1">
          <mxGeometry relative="1" as="geometry" />
        </mxCell>
        <mxCell id="Xj7_EkZbvWYcYtQPjObU-52" value="NoTransformations" style="text;html=1;align=left;verticalAlign=middle;whiteSpace=wrap;rounded=0;" parent="1" vertex="1">
          <mxGeometry x="380" y="430" width="70" height="30" as="geometry" />
        </mxCell>
        <mxCell id="Xj7_EkZbvWYcYtQPjObU-54" value="Data Model :None" style="text;html=1;align=left;verticalAlign=middle;whiteSpace=wrap;rounded=0;" parent="1" vertex="1">
          <mxGeometry x="375" y="430" width="110" height="205" as="geometry" />
        </mxCell>
        <mxCell id="Xj7_EkZbvWYcYtQPjObU-57" value="&amp;nbsp; &amp;nbsp;&lt;div&gt;&amp;nbsp; &amp;nbsp; &amp;nbsp;OBJECT TYPE :&lt;div&gt;&lt;br&gt;&lt;div&gt;&amp;nbsp; &amp;nbsp; &amp;nbsp; &amp;nbsp; &amp;nbsp; &amp;nbsp; Tables&lt;/div&gt;&lt;/div&gt;&lt;/div&gt;" style="text;html=1;align=left;verticalAlign=middle;whiteSpace=wrap;rounded=0;" parent="1" vertex="1">
          <mxGeometry x="530" y="240" width="110" height="30" as="geometry" />
        </mxCell>
        <mxCell id="Xj7_EkZbvWYcYtQPjObU-58" value="OBJECT TYPE :&lt;div&gt;&lt;br&gt;&lt;div&gt;&amp;nbsp; &amp;nbsp; &amp;nbsp; Tables&lt;/div&gt;&lt;/div&gt;" style="text;html=1;align=left;verticalAlign=middle;whiteSpace=wrap;rounded=0;textShadow=0;" parent="1" vertex="1">
          <mxGeometry x="695" y="250" width="110" height="30" as="geometry" />
        </mxCell>
        <mxCell id="Xj7_EkZbvWYcYtQPjObU-69" value="Data Model :None" style="text;html=1;align=left;verticalAlign=middle;whiteSpace=wrap;rounded=0;" parent="1" vertex="1">
          <mxGeometry x="537" y="510" width="120" height="30" as="geometry" />
        </mxCell>
        <mxCell id="Xj7_EkZbvWYcYtQPjObU-74" value="Transformations:&lt;div&gt;&lt;br&gt;&lt;div&gt;&lt;div style=&quot;text-align: left;&quot;&gt;&lt;span style=&quot;background-color: transparent; color: light-dark(rgb(0, 0, 0), rgb(255, 255, 255));&quot;&gt;&amp;nbsp;Data Cleaning&lt;/span&gt;&lt;/div&gt;&lt;div style=&quot;text-align: left;&quot;&gt;&amp;nbsp;Data&amp;nbsp; Standrization&lt;/div&gt;&lt;div style=&quot;text-align: left;&quot;&gt;&amp;nbsp;Data Normalization&lt;/div&gt;&lt;div style=&quot;text-align: left;&quot;&gt;&amp;nbsp;Derived Columns&lt;/div&gt;&lt;div style=&quot;text-align: left;&quot;&gt;&amp;nbsp;Data Enrichment&lt;/div&gt;&lt;/div&gt;&lt;/div&gt;" style="text;html=1;align=center;verticalAlign=middle;whiteSpace=wrap;rounded=0;" parent="1" vertex="1">
          <mxGeometry x="532" y="385" width="130" height="110" as="geometry" />
        </mxCell>
        <mxCell id="Xj7_EkZbvWYcYtQPjObU-76" value="Transformations:&amp;nbsp;" style="text;html=1;align=center;verticalAlign=middle;whiteSpace=wrap;rounded=0;" parent="1" vertex="1">
          <mxGeometry x="705" y="313.5" width="90" height="40" as="geometry" />
        </mxCell>
        <mxCell id="Xj7_EkZbvWYcYtQPjObU-77" value="&amp;nbsp; &amp;nbsp; Data Integrations&lt;div&gt;&lt;span style=&quot;background-color: transparent; color: light-dark(rgb(0, 0, 0), rgb(255, 255, 255));&quot;&gt;&amp;nbsp; &amp;nbsp; Aggregation&lt;/span&gt;&lt;/div&gt;&lt;div&gt;&lt;span style=&quot;background-color: transparent; color: light-dark(rgb(0, 0, 0), rgb(255, 255, 255));&quot;&gt;&amp;nbsp; &amp;nbsp; Bussiness Logics&lt;/span&gt;&lt;/div&gt;" style="text;html=1;align=left;verticalAlign=middle;whiteSpace=wrap;rounded=0;" parent="1" vertex="1">
          <mxGeometry x="685" y="340" width="120" height="90" as="geometry" />
        </mxCell>
        <mxCell id="guFBt7V_k81BZnWQ7l9P-1" value="Data Model:" style="text;html=1;align=center;verticalAlign=middle;whiteSpace=wrap;rounded=0;" vertex="1" parent="1">
          <mxGeometry x="685" y="420" width="110" height="90" as="geometry" />
        </mxCell>
        <mxCell id="guFBt7V_k81BZnWQ7l9P-2" value="&lt;div style=&quot;text-align: left;&quot;&gt;&lt;span style=&quot;background-color: transparent; color: light-dark(rgb(0, 0, 0), rgb(255, 255, 255));&quot;&gt;star schema&amp;nbsp;&lt;/span&gt;&lt;/div&gt;&lt;div&gt;&lt;div style=&quot;text-align: left;&quot;&gt;&lt;span style=&quot;background-color: transparent; color: light-dark(rgb(0, 0, 0), rgb(255, 255, 255));&quot;&gt;&amp;nbsp;Flat table&amp;nbsp;&lt;/span&gt;&lt;/div&gt;&lt;div&gt;&amp;nbsp;Aggregated Table&lt;/div&gt;&lt;/div&gt;" style="text;html=1;align=center;verticalAlign=middle;whiteSpace=wrap;rounded=0;" vertex="1" parent="1">
          <mxGeometry x="695" y="450" width="120" height="110" as="geometry" />
        </mxCell>
        <mxCell id="guFBt7V_k81BZnWQ7l9P-5" value="" style="line;strokeWidth=1;fillColor=none;align=left;verticalAlign=middle;spacingTop=-1;spacingLeft=3;spacingRight=3;rotatable=0;labelPosition=right;points=[];portConstraint=eastwest;strokeColor=inherit;" vertex="1" parent="1">
          <mxGeometry x="380" y="184.5" width="90" height="62" as="geometry" />
        </mxCell>
        <mxCell id="guFBt7V_k81BZnWQ7l9P-6" value="" style="line;strokeWidth=1;fillColor=none;align=left;verticalAlign=middle;spacingTop=-1;spacingLeft=3;spacingRight=3;rotatable=0;labelPosition=right;points=[];portConstraint=eastwest;strokeColor=inherit;" vertex="1" parent="1">
          <mxGeometry x="542" y="190" width="90" height="62" as="geometry" />
        </mxCell>
        <mxCell id="guFBt7V_k81BZnWQ7l9P-7" value="" style="line;strokeWidth=1;fillColor=none;align=left;verticalAlign=middle;spacingTop=-1;spacingLeft=3;spacingRight=3;rotatable=0;labelPosition=right;points=[];portConstraint=eastwest;strokeColor=inherit;" vertex="1" parent="1">
          <mxGeometry x="700" y="190" width="90" height="62" as="geometry" />
        </mxCell>
        <mxCell id="guFBt7V_k81BZnWQ7l9P-9" value="" style="line;strokeWidth=1;fillColor=none;align=left;verticalAlign=middle;spacingTop=-1;spacingLeft=3;spacingRight=3;rotatable=0;labelPosition=right;points=[];portConstraint=eastwest;strokeColor=inherit;" vertex="1" parent="1">
          <mxGeometry x="185" y="372" width="90" height="8" as="geometry" />
        </mxCell>
        <mxCell id="guFBt7V_k81BZnWQ7l9P-13" value="&amp;nbsp; &amp;nbsp; &amp;nbsp; &amp;nbsp; &amp;nbsp;LOAD:&lt;div&gt;&lt;br&gt;&lt;div&gt;&amp;nbsp; &amp;nbsp; Batch Processing&lt;/div&gt;&lt;div&gt;&amp;nbsp; &amp;nbsp; Full Load&lt;/div&gt;&lt;div&gt;&amp;nbsp; &amp;nbsp;Truncate &amp;amp; Insert&lt;/div&gt;&lt;/div&gt;" style="text;html=1;align=left;verticalAlign=middle;whiteSpace=wrap;rounded=0;" vertex="1" parent="1">
          <mxGeometry x="532" y="275" width="120" height="110" as="geometry" />
        </mxCell>
        <mxCell id="guFBt7V_k81BZnWQ7l9P-14" value="" style="image;aspect=fixed;html=1;points=[];align=center;fontSize=12;image=img/lib/azure2/power_platform/PowerBI.svg;textShadow=1;container=0;" vertex="1" parent="1">
          <mxGeometry x="889.5" y="120.5" width="51" height="68" as="geometry" />
        </mxCell>
        <mxCell id="guFBt7V_k81BZnWQ7l9P-15" value="" style="image;aspect=fixed;perimeter=ellipsePerimeter;html=1;align=center;shadow=0;dashed=0;spacingTop=3;image=img/lib/active_directory/databases.svg;" vertex="1" parent="1">
          <mxGeometry x="400" y="135.5" width="50" height="49" as="geometry" />
        </mxCell>
        <mxCell id="guFBt7V_k81BZnWQ7l9P-16" value="" style="image;aspect=fixed;perimeter=ellipsePerimeter;html=1;align=center;shadow=0;dashed=0;spacingTop=3;image=img/lib/active_directory/databases.svg;" vertex="1" parent="1">
          <mxGeometry x="725" y="130" width="50" height="49" as="geometry" />
        </mxCell>
        <mxCell id="guFBt7V_k81BZnWQ7l9P-18" style="edgeStyle=orthogonalEdgeStyle;rounded=0;orthogonalLoop=1;jettySize=auto;html=1;exitX=0.5;exitY=1;exitDx=0;exitDy=0;" edge="1" parent="1" source="Xj7_EkZbvWYcYtQPjObU-47" target="Xj7_EkZbvWYcYtQPjObU-47">
          <mxGeometry relative="1" as="geometry" />
        </mxCell>
        <mxCell id="guFBt7V_k81BZnWQ7l9P-19" value="" style="rounded=0;whiteSpace=wrap;html=1;fillColor=none;" vertex="1" parent="1">
          <mxGeometry x="690" y="130" width="120" height="420" as="geometry" />
        </mxCell>
        <mxCell id="guFBt7V_k81BZnWQ7l9P-20" value="" style="image;aspect=fixed;perimeter=ellipsePerimeter;html=1;align=center;shadow=0;dashed=0;spacingTop=3;image=img/lib/active_directory/databases.svg;" vertex="1" parent="1">
          <mxGeometry x="567" y="130" width="50" height="49" as="geometry" />
        </mxCell>
        <mxCell id="guFBt7V_k81BZnWQ7l9P-21" style="edgeStyle=orthogonalEdgeStyle;rounded=0;orthogonalLoop=1;jettySize=auto;html=1;exitX=0.5;exitY=1;exitDx=0;exitDy=0;" edge="1" parent="1" source="Xj7_EkZbvWYcYtQPjObU-46" target="Xj7_EkZbvWYcYtQPjObU-46">
          <mxGeometry relative="1" as="geometry" />
        </mxCell>
        <mxCell id="guFBt7V_k81BZnWQ7l9P-26" value="" style="rounded=0;whiteSpace=wrap;html=1;fillColor=none;strokeColor=#b85450;" vertex="1" parent="1">
          <mxGeometry x="170" y="110" width="120" height="456" as="geometry" />
        </mxCell>
        <mxCell id="guFBt7V_k81BZnWQ7l9P-32" value="" style="sketch=0;pointerEvents=1;shadow=0;dashed=0;html=1;strokeColor=none;labelPosition=center;verticalLabelPosition=bottom;verticalAlign=top;align=center;fillColor=#505050;shape=mxgraph.mscae.oms.log_search" vertex="1" parent="1">
          <mxGeometry x="880" y="291.5" width="50" height="50" as="geometry" />
        </mxCell>
        <mxCell id="guFBt7V_k81BZnWQ7l9P-34" value="" style="points=[];aspect=fixed;html=1;align=center;shadow=0;dashed=0;fillColor=#FF6A00;strokeColor=none;shape=mxgraph.alibaba_cloud.machine_learning;" vertex="1" parent="1">
          <mxGeometry x="889.5" y="414.95" width="49.8" height="50.099999999999994" as="geometry" />
        </mxCell>
        <mxCell id="guFBt7V_k81BZnWQ7l9P-35" value="BI &amp;amp; Reporting" style="text;html=1;align=center;verticalAlign=middle;whiteSpace=wrap;rounded=0;" vertex="1" parent="1">
          <mxGeometry x="875" y="210" width="60" height="30" as="geometry" />
        </mxCell>
        <mxCell id="guFBt7V_k81BZnWQ7l9P-36" value="Ad-HOC&lt;div&gt;SQL Queries&lt;/div&gt;" style="text;html=1;align=center;verticalAlign=middle;whiteSpace=wrap;rounded=0;" vertex="1" parent="1">
          <mxGeometry x="870" y="355" width="60" height="30" as="geometry" />
        </mxCell>
        <mxCell id="guFBt7V_k81BZnWQ7l9P-37" value="Machine Learning" style="text;html=1;align=center;verticalAlign=middle;whiteSpace=wrap;rounded=0;" vertex="1" parent="1">
          <mxGeometry x="889.5" y="480.5" width="60" height="30" as="geometry" />
        </mxCell>
        <mxCell id="guFBt7V_k81BZnWQ7l9P-42" value="" style="verticalLabelPosition=bottom;verticalAlign=top;html=1;strokeWidth=2;shape=mxgraph.arrows2.arrow;dy=0.6;dx=40;notch=0;fillColor=#f5f5f5;strokeColor=#666666;gradientColor=#b3b3b3;" vertex="1" parent="1">
          <mxGeometry x="280" y="260" width="80" height="35" as="geometry" />
        </mxCell>
        <mxCell id="guFBt7V_k81BZnWQ7l9P-43" value="" style="verticalLabelPosition=bottom;verticalAlign=top;html=1;strokeWidth=2;shape=mxgraph.arrows2.arrow;dy=0.6;dx=40;notch=0;fillColor=#f5f5f5;strokeColor=#666666;gradientColor=#b3b3b3;" vertex="1" parent="1">
          <mxGeometry x="480" y="260" width="80" height="35" as="geometry" />
        </mxCell>
        <mxCell id="guFBt7V_k81BZnWQ7l9P-44" value="" style="verticalLabelPosition=bottom;verticalAlign=top;html=1;strokeWidth=2;shape=mxgraph.arrows2.arrow;dy=0.6;dx=40;notch=0;fillColor=#f5f5f5;strokeColor=#666666;gradientColor=#b3b3b3;" vertex="1" parent="1">
          <mxGeometry x="630" y="260" width="80" height="35" as="geometry" />
        </mxCell>
        <mxCell id="guFBt7V_k81BZnWQ7l9P-45" value="" style="verticalLabelPosition=bottom;verticalAlign=top;html=1;strokeWidth=2;shape=mxgraph.arrows2.arrow;dy=0.6;dx=40;notch=0;fillColor=#f5f5f5;gradientColor=#b3b3b3;strokeColor=#666666;" vertex="1" parent="1">
          <mxGeometry x="795" y="260" width="80" height="35" as="geometry" />
        </mxCell>
      </root>
    </mxGraphModel>
  </diagram>
</mxfile>
